<svg width="777" height="228" viewBox="0 0 777 228" fill="none" xmlns="http://www.w3.org/2000/svg">
<rect x="0.539062" width="775.922" height="228" rx="30" fill="#0D0C0F"/>
<path d="M44.8392 59.0222C44.8392 45.3507 53.8432 36.1001 67.1686 36.1001H161.91C175.229 36.1001 184.239 45.3442 184.239 59.0222V191.9L172.802 178.261V59.0222C172.802 56.0659 171.657 53.2305 169.619 51.1383C167.58 49.0461 164.814 47.8682 161.929 47.863H67.1876C64.3026 47.8699 61.538 49.0484 59.4998 51.1402C57.4616 53.232 56.3161 56.0665 56.3144 59.0222V155.339C56.3144 158.295 57.4594 161.131 59.4979 163.223C61.5365 165.315 64.3021 166.493 67.1876 166.498H146.665L158.019 178.17L67.1686 178.261C53.8495 178.261 44.8392 169.017 44.8392 155.339V59.0222Z" fill="#00925D"/>
<path d="M73.8271 94.2953V77.7729C73.8271 73.6933 75.459 70.5112 78.723 68.2267C81.9869 65.9421 86.3549 64.7998 91.8268 64.7998C97.3947 64.7998 101.811 65.8605 105.075 67.9819C108.339 70.0217 109.971 72.7142 109.971 76.0595V91.2356C109.971 92.7043 108.723 93.7242 106.227 94.2953C104.883 94.6217 103.539 94.7849 102.195 94.7849C100.851 94.7849 99.5067 94.6625 98.1627 94.4177C98.4507 92.4595 98.5947 90.3789 98.5947 88.1759V77.7729C98.5947 76.2227 97.9707 75.0396 96.7227 74.2237C95.4747 73.3262 93.8428 72.8774 91.8268 72.8774C89.8108 72.8774 88.1788 73.3262 86.9309 74.2237C85.7789 75.0396 85.2029 76.2227 85.2029 77.7729V92.0923C85.2029 94.9481 86.3069 96.9471 88.5148 98.0894L103.779 106.412C108.099 108.696 110.259 112.205 110.259 116.937V133.827C110.259 137.906 108.579 141.088 105.219 143.373C101.859 145.658 97.3947 146.8 91.8268 146.8C86.3549 146.8 81.9389 145.78 78.579 143.74C75.219 141.619 73.5391 138.885 73.5391 135.54V120.364C73.5391 118.895 74.787 117.875 77.283 117.304C78.627 116.978 79.971 116.815 81.3149 116.815C82.6589 116.815 84.0029 116.937 85.3469 117.182C85.0589 119.14 84.9149 121.221 84.9149 123.424V133.827C84.9149 135.295 85.5869 136.478 86.9309 137.376C88.2748 138.273 89.9548 138.722 91.9708 138.722C93.9868 138.722 95.6187 138.273 96.8667 137.376C98.2107 136.478 98.8827 135.295 98.8827 133.827V119.997C98.8827 116.815 97.5867 114.53 94.9947 113.143L79.731 104.698C75.795 102.577 73.8271 99.1093 73.8271 94.2953Z" fill="white"/>
<path d="M119.108 94.2953V77.7729C119.108 73.6933 120.74 70.5112 124.004 68.2267C127.267 65.9421 131.635 64.7998 137.107 64.7998C142.675 64.7998 147.091 65.8605 150.355 67.9819C153.619 70.0217 155.251 72.7142 155.251 76.0595V91.2356C155.251 92.7043 154.003 93.7242 151.507 94.2953C150.163 94.6217 148.819 94.7849 147.475 94.7849C146.131 94.7849 144.787 94.6625 143.443 94.4177C143.731 92.4595 143.875 90.3789 143.875 88.1759V77.7729C143.875 76.2227 143.251 75.0396 142.003 74.2237C140.755 73.3262 139.123 72.8774 137.107 72.8774C135.091 72.8774 133.459 73.3262 132.211 74.2237C131.059 75.0396 130.483 76.2227 130.483 77.7729V92.0923C130.483 94.9481 131.587 96.9471 133.795 98.0894L149.059 106.412C153.379 108.696 155.539 112.205 155.539 116.937V133.827C155.539 137.906 153.859 141.088 150.499 143.373C147.139 145.658 142.675 146.8 137.107 146.8C131.635 146.8 127.219 145.78 123.86 143.74C120.5 141.619 118.82 138.885 118.82 135.54V120.364C118.82 118.895 120.068 117.875 122.564 117.304C123.908 116.978 125.252 116.815 126.596 116.815C127.939 116.815 129.283 116.937 130.627 117.182C130.339 119.14 130.195 121.221 130.195 123.424V133.827C130.195 135.295 130.867 136.478 132.211 137.376C133.555 138.273 135.235 138.722 137.251 138.722C139.267 138.722 140.899 138.273 142.147 137.376C143.491 136.478 144.163 135.295 144.163 133.827V119.997C144.163 116.815 142.867 114.53 140.275 113.143L125.012 104.698C121.076 102.577 119.108 99.1093 119.108 94.2953Z" fill="white"/>
<path d="M67.6074 181.643L67.7031 181.547H67.5322L67.6074 181.643Z" fill="black"/>
<path d="M217.683 134.763V149.435C217.683 149.896 217.913 150.127 218.374 150.127H223.908C224.37 150.127 224.6 149.896 224.6 149.435V124.52L213.67 119.675C212.84 119.398 211.687 118.937 210.212 118.291C208.736 117.553 207.398 116.492 206.199 115.107C205.092 113.723 204.539 111.831 204.539 109.432V77.8729C204.539 73.9972 205.738 70.9058 208.136 68.5989C210.534 66.1996 213.67 65 217.544 65H224.739C228.612 65 231.748 66.1996 234.147 68.5989C236.545 70.9058 237.744 73.9972 237.744 77.8729V98.3588L224.6 97.2514V78.565C224.6 78.1036 224.37 77.8729 223.908 77.8729H218.374C217.913 77.8729 217.683 78.1036 217.683 78.565V107.494L228.612 112.339C229.443 112.708 230.596 113.216 232.071 113.862C233.547 114.508 234.838 115.523 235.945 116.907C237.144 118.291 237.744 120.183 237.744 122.582V150.127C237.744 154.003 236.545 157.14 234.147 159.54C231.748 161.847 228.612 163 224.739 163H217.544C213.67 163 210.534 161.847 208.136 159.54C205.738 157.14 204.539 154.003 204.539 150.127V134.763H217.683Z" fill="white"/>
<path d="M268.358 162.446C264.115 162.446 260.702 161.247 258.119 158.847C255.629 156.356 254.384 153.265 254.384 149.573V106.11C254.384 102.327 255.629 99.2354 258.119 96.8362C260.702 94.4369 264.115 93.2373 268.358 93.2373H268.911C271.401 93.2373 273.615 93.8371 275.552 95.0367V93.2373H288.695V149.573H290.632L292.016 162.446H275.552V157.048L272.093 162.446H268.358ZM268.219 106.11C267.758 106.11 267.527 106.341 267.527 106.802V148.881C267.527 149.343 267.758 149.573 268.219 149.573H275.552V106.11H268.219Z" fill="white"/>
<path d="M318.978 74.8277L320.361 87.7006H307.218V74.8277H318.978ZM320.361 93.2373V162.446H307.218V106.11H305.142L306.526 93.2373H320.361Z" fill="white"/>
<path d="M338.852 162.446V106.11H335.531L336.915 93.2373H351.995V98.6356L355.454 93.2373H359.19C363.432 93.2373 366.799 94.4369 369.289 96.8362C371.872 99.2354 373.163 102.327 373.163 106.11V149.573H376.622L375.239 162.446H360.02V106.802C360.02 106.341 359.789 106.11 359.328 106.11H351.995V162.446H338.852Z" fill="white"/>
<path d="M414.649 149.573V162.446H406.624C402.75 162.446 399.614 161.293 397.216 158.986C394.818 156.587 393.619 153.449 393.619 149.573V106.11H387.808L388.915 93.2373H393.619V78.4266H390.16L391.267 65.5537H406.762V93.2373H414.649L413.542 106.11H406.762V149.573H414.649Z" fill="white"/>
<path d="M442.993 134.763V149.435C442.993 149.896 443.223 150.127 443.684 150.127H449.218C449.68 150.127 449.91 149.896 449.91 149.435V124.52L438.98 119.675C438.15 119.398 436.997 118.937 435.521 118.291C434.046 117.553 432.708 116.492 431.509 115.107C430.402 113.723 429.849 111.831 429.849 109.432V77.8729C429.849 73.9972 431.048 70.9058 433.446 68.5989C435.844 66.1996 438.98 65 442.854 65H450.049C453.922 65 457.058 66.1996 459.457 68.5989C461.855 70.9058 463.054 73.9972 463.054 77.8729V98.3588L449.91 97.2514V78.565C449.91 78.1036 449.68 77.8729 449.218 77.8729H443.684C443.223 77.8729 442.993 78.1036 442.993 78.565V107.494L453.922 112.339C454.753 112.708 455.906 113.216 457.381 113.862C458.857 114.508 460.148 115.523 461.255 116.907C462.454 118.291 463.054 120.183 463.054 122.582V150.127C463.054 154.003 461.855 157.14 459.457 159.54C457.058 161.847 453.922 163 450.049 163H442.854C438.98 163 435.844 161.847 433.446 159.54C431.048 157.14 429.849 154.003 429.849 150.127V134.763H442.993Z" fill="white"/>
<path d="M505.151 149.573V162.446H497.126C493.253 162.446 490.117 161.293 487.718 158.986C485.32 156.587 484.121 153.449 484.121 149.573V106.11H478.31L479.417 93.2373H484.121V78.4266H480.662L481.769 65.5537H497.265V93.2373H505.151L504.044 106.11H497.265V149.573H505.151Z" fill="white"/>
<path d="M535.432 93.2373V99.3277L539.167 93.2373H548.437V106.664H535.432V162.446H522.288V106.11H518.968L520.351 93.2373H535.432Z" fill="white"/>
<path d="M563.711 150.127V105.557C563.711 101.681 564.91 98.5895 567.308 96.2825C569.706 93.8832 572.842 92.6836 576.716 92.6836H585.294C589.168 92.6836 592.304 93.8832 594.702 96.2825C597.1 98.5895 598.299 101.681 598.299 105.557V122.582H585.156V106.249C585.156 105.787 584.925 105.557 584.464 105.557H577.546C577.085 105.557 576.854 105.787 576.854 106.249V122.582H598.299V135.455H576.854V149.435C576.854 149.896 577.085 150.127 577.546 150.127H584.464C584.925 150.127 585.156 149.943 585.156 149.573V141.96H598.299V150.127C598.299 154.003 597.1 157.14 594.702 159.54C592.304 161.847 589.168 163 585.294 163H576.716C572.842 163 569.706 161.847 567.308 159.54C564.91 157.14 563.711 154.003 563.711 150.127Z" fill="white"/>
<path d="M629.556 162.446C625.313 162.446 621.901 161.247 619.318 158.847C616.828 156.356 615.582 153.265 615.582 149.573V106.11C615.582 102.327 616.828 99.2354 619.318 96.8362C621.901 94.4369 625.313 93.2373 629.556 93.2373H630.11C632.6 93.2373 634.814 93.8371 636.75 95.0367V93.2373H649.894V149.573H651.831L653.215 162.446H636.75V157.048L633.292 162.446H629.556ZM629.418 106.11C628.957 106.11 628.726 106.341 628.726 106.802V148.881C628.726 149.343 628.957 149.573 629.418 149.573H636.75V106.11H629.418Z" fill="white"/>
<path d="M703.973 162.446H690.829V106.802C690.829 106.341 690.599 106.11 690.137 106.11H682.805V162.446H669.661V106.11H666.341L667.724 93.2373H682.805V98.6356L686.264 93.2373H689.999C693.043 93.2373 695.672 93.8832 697.885 95.1751C700.099 96.467 701.713 98.2203 702.728 100.435L707.432 93.2373H711.167C715.41 93.2373 718.776 94.4369 721.267 96.8362C723.849 99.2354 725.141 102.327 725.141 106.11V149.573H728.461L727.078 162.446H711.997V106.802C711.997 106.341 711.767 106.11 711.305 106.11H703.973V162.446Z" fill="white"/>
</svg>
